<mxfile host="Electron" agent="Mozilla/5.0 (Windows NT 10.0; Win64; x64) AppleWebKit/537.36 (KHTML, like Gecko) draw.io/25.0.2 Chrome/128.0.6613.186 Electron/32.2.5 Safari/537.36" version="25.0.2">
  <diagram id="readFontFile" name="readFontFile">
    <mxGraphModel dx="1050" dy="-3959" grid="1" gridSize="10" guides="1" tooltips="1" connect="1" arrows="1" fold="1" page="1" pageScale="1" pageWidth="827" pageHeight="1169" math="0" shadow="0">
      <root>
        <mxCell id="0" />
        <mxCell id="1" parent="0" />
        <mxCell id="29" value="" style="endArrow=classic;html=1;exitX=0;exitY=0.5;entryX=0;entryY=0.5;fontColor=#FFFFFF;" parent="1" edge="1">
          <mxGeometry width="50" height="50" relative="1" as="geometry">
            <Array as="points">
              <mxPoint x="100" y="760" />
              <mxPoint x="100" y="630" />
            </Array>
            <mxPoint x="180" y="789.9999999999998" as="targetPoint" />
          </mxGeometry>
        </mxCell>
        <mxCell id="IpKQC5A5xF7qrgledUuR-29" value="call: freeFontData()" style="swimlane;whiteSpace=wrap;html=1;fillColor=#ffff88;strokeColor=#36393d;" vertex="1" parent="1">
          <mxGeometry y="4676" width="423.45" height="424" as="geometry" />
        </mxCell>
        <mxCell id="IpKQC5A5xF7qrgledUuR-30" style="edgeStyle=orthogonalEdgeStyle;rounded=0;orthogonalLoop=1;jettySize=auto;html=1;exitX=1;exitY=0.5;exitDx=0;exitDy=0;" edge="1" parent="IpKQC5A5xF7qrgledUuR-29" source="IpKQC5A5xF7qrgledUuR-32" target="IpKQC5A5xF7qrgledUuR-34">
          <mxGeometry relative="1" as="geometry" />
        </mxCell>
        <mxCell id="IpKQC5A5xF7qrgledUuR-31" value="INVALID" style="edgeLabel;html=1;align=center;verticalAlign=middle;resizable=0;points=[];" vertex="1" connectable="0" parent="IpKQC5A5xF7qrgledUuR-30">
          <mxGeometry x="-0.1526" y="-1" relative="1" as="geometry">
            <mxPoint as="offset" />
          </mxGeometry>
        </mxCell>
        <mxCell id="IpKQC5A5xF7qrgledUuR-32" value="Validate&amp;nbsp;Font Pointer" style="rhombus;whiteSpace=wrap;html=1;rounded=1;" vertex="1" parent="IpKQC5A5xF7qrgledUuR-29">
          <mxGeometry x="11.120000000000005" y="34" width="148.83" height="80" as="geometry" />
        </mxCell>
        <mxCell id="IpKQC5A5xF7qrgledUuR-33" style="edgeStyle=orthogonalEdgeStyle;rounded=0;orthogonalLoop=1;jettySize=auto;html=1;exitX=0.75;exitY=1;exitDx=0;exitDy=0;entryX=0.5;entryY=0;entryDx=0;entryDy=0;" edge="1" parent="IpKQC5A5xF7qrgledUuR-29" source="IpKQC5A5xF7qrgledUuR-34" target="IpKQC5A5xF7qrgledUuR-35">
          <mxGeometry relative="1" as="geometry" />
        </mxCell>
        <mxCell id="IpKQC5A5xF7qrgledUuR-34" value="&lt;font style=&quot;font-size: 10px;&quot;&gt;printf(&quot;Error: Cannot free NULL font data)&lt;/font&gt;" style="rounded=1;whiteSpace=wrap;html=1;fillColor=#f5f5f5;strokeColor=#666666;fontColor=#333333;" vertex="1" parent="IpKQC5A5xF7qrgledUuR-29">
          <mxGeometry x="222" y="56" width="193" height="36" as="geometry" />
        </mxCell>
        <mxCell id="IpKQC5A5xF7qrgledUuR-35" value="&lt;font style=&quot;font-size: 10px;&quot;&gt;Return EXIT_INVALID_PARAMS&lt;/font&gt;" style="whiteSpace=wrap;html=1;fillColor=#f8cecc;strokeColor=#b85450;rounded=1;" vertex="1" parent="IpKQC5A5xF7qrgledUuR-29">
          <mxGeometry x="288.45" y="114" width="123.96" height="37.75" as="geometry" />
        </mxCell>
        <mxCell id="IpKQC5A5xF7qrgledUuR-36" value="" style="edgeStyle=orthogonalEdgeStyle;rounded=0;orthogonalLoop=1;jettySize=auto;html=1;exitX=0.5;exitY=1;exitDx=0;exitDy=0;entryX=0.318;entryY=0.069;entryDx=0;entryDy=0;entryPerimeter=0;" edge="1" parent="IpKQC5A5xF7qrgledUuR-29" source="IpKQC5A5xF7qrgledUuR-32" target="IpKQC5A5xF7qrgledUuR-42">
          <mxGeometry relative="1" as="geometry">
            <mxPoint x="154.40999999999997" y="4018" as="sourcePoint" />
            <mxPoint x="85.40999999999997" y="149" as="targetPoint" />
          </mxGeometry>
        </mxCell>
        <mxCell id="IpKQC5A5xF7qrgledUuR-37" value="Valid" style="edgeLabel;html=1;align=center;verticalAlign=middle;resizable=0;points=[];" vertex="1" connectable="0" parent="IpKQC5A5xF7qrgledUuR-36">
          <mxGeometry x="-0.4391" y="-3" relative="1" as="geometry">
            <mxPoint as="offset" />
          </mxGeometry>
        </mxCell>
        <mxCell id="IpKQC5A5xF7qrgledUuR-38" value="if (!font)" style="text;html=1;align=center;verticalAlign=middle;resizable=0;points=[];autosize=1;strokeColor=none;fillColor=none;" vertex="1" parent="IpKQC5A5xF7qrgledUuR-29">
          <mxGeometry x="56.02999999999997" y="79" width="59" height="26" as="geometry" />
        </mxCell>
        <mxCell id="IpKQC5A5xF7qrgledUuR-39" value="" style="edgeStyle=orthogonalEdgeStyle;rounded=0;orthogonalLoop=1;jettySize=auto;html=1;" edge="1" parent="IpKQC5A5xF7qrgledUuR-29" source="IpKQC5A5xF7qrgledUuR-42" target="IpKQC5A5xF7qrgledUuR-45">
          <mxGeometry relative="1" as="geometry" />
        </mxCell>
        <mxCell id="IpKQC5A5xF7qrgledUuR-40" value="for (int i = 0; i &amp;lt; 256; i++)" style="edgeLabel;html=1;align=center;verticalAlign=middle;resizable=0;points=[];" vertex="1" connectable="0" parent="IpKQC5A5xF7qrgledUuR-39">
          <mxGeometry x="0.3183" y="-1" relative="1" as="geometry">
            <mxPoint as="offset" />
          </mxGeometry>
        </mxCell>
        <mxCell id="IpKQC5A5xF7qrgledUuR-41" style="edgeStyle=orthogonalEdgeStyle;rounded=0;orthogonalLoop=1;jettySize=auto;html=1;exitX=0;exitY=0.5;exitDx=0;exitDy=0;entryX=0;entryY=0.5;entryDx=0;entryDy=0;" edge="1" parent="IpKQC5A5xF7qrgledUuR-29" source="IpKQC5A5xF7qrgledUuR-42" target="IpKQC5A5xF7qrgledUuR-51">
          <mxGeometry relative="1" as="geometry">
            <mxPoint x="29.208620689655106" y="376.8620689655172" as="targetPoint" />
          </mxGeometry>
        </mxCell>
        <mxCell id="IpKQC5A5xF7qrgledUuR-42" value="Free Character Stroke Data Loop Start" style="whiteSpace=wrap;html=1;rounded=1;" vertex="1" parent="IpKQC5A5xF7qrgledUuR-29">
          <mxGeometry x="59" y="142.75" width="215.67" height="35" as="geometry" />
        </mxCell>
        <mxCell id="IpKQC5A5xF7qrgledUuR-43" value="" style="edgeStyle=orthogonalEdgeStyle;rounded=0;orthogonalLoop=1;jettySize=auto;html=1;" edge="1" parent="IpKQC5A5xF7qrgledUuR-29" source="IpKQC5A5xF7qrgledUuR-45" target="IpKQC5A5xF7qrgledUuR-49">
          <mxGeometry relative="1" as="geometry" />
        </mxCell>
        <mxCell id="IpKQC5A5xF7qrgledUuR-44" value="if (font-&amp;gt;characters[i].strokes)" style="edgeLabel;html=1;align=center;verticalAlign=middle;resizable=0;points=[];" vertex="1" connectable="0" parent="IpKQC5A5xF7qrgledUuR-43">
          <mxGeometry x="0.0465" relative="1" as="geometry">
            <mxPoint as="offset" />
          </mxGeometry>
        </mxCell>
        <mxCell id="IpKQC5A5xF7qrgledUuR-45" value="Check Character Strokes Existence" style="whiteSpace=wrap;html=1;rounded=1;" vertex="1" parent="IpKQC5A5xF7qrgledUuR-29">
          <mxGeometry x="59" y="205.75" width="215.67" height="35" as="geometry" />
        </mxCell>
        <mxCell id="IpKQC5A5xF7qrgledUuR-46" style="edgeStyle=orthogonalEdgeStyle;rounded=0;orthogonalLoop=1;jettySize=auto;html=1;exitX=0.5;exitY=1;exitDx=0;exitDy=0;entryX=1;entryY=0.5;entryDx=0;entryDy=0;" edge="1" parent="IpKQC5A5xF7qrgledUuR-29" source="IpKQC5A5xF7qrgledUuR-49" target="IpKQC5A5xF7qrgledUuR-42">
          <mxGeometry relative="1" as="geometry">
            <mxPoint x="160.0689655172414" y="360.78448275862047" as="targetPoint" />
            <Array as="points">
              <mxPoint x="167" y="323.75" />
              <mxPoint x="295" y="323.75" />
              <mxPoint x="295" y="159.75" />
            </Array>
          </mxGeometry>
        </mxCell>
        <mxCell id="IpKQC5A5xF7qrgledUuR-47" value="free(font-&amp;gt;characters[i].strokes); &lt;br&gt;font-&amp;gt;characters[i].strokes = NULL;" style="edgeLabel;html=1;align=center;verticalAlign=middle;resizable=0;points=[];" vertex="1" connectable="0" parent="IpKQC5A5xF7qrgledUuR-46">
          <mxGeometry x="-0.1887" y="-1" relative="1" as="geometry">
            <mxPoint x="-59" y="7" as="offset" />
          </mxGeometry>
        </mxCell>
        <mxCell id="IpKQC5A5xF7qrgledUuR-48" value="i++" style="edgeLabel;html=1;align=center;verticalAlign=middle;resizable=0;points=[];" vertex="1" connectable="0" parent="IpKQC5A5xF7qrgledUuR-46">
          <mxGeometry x="0.4275" y="-2" relative="1" as="geometry">
            <mxPoint as="offset" />
          </mxGeometry>
        </mxCell>
        <mxCell id="IpKQC5A5xF7qrgledUuR-49" value="Free Stroke Data for Character" style="whiteSpace=wrap;html=1;rounded=1;" vertex="1" parent="IpKQC5A5xF7qrgledUuR-29">
          <mxGeometry x="59" y="268.75" width="215.67" height="31.25" as="geometry" />
        </mxCell>
        <mxCell id="IpKQC5A5xF7qrgledUuR-50" value="" style="edgeStyle=orthogonalEdgeStyle;rounded=0;orthogonalLoop=1;jettySize=auto;html=1;" edge="1" parent="IpKQC5A5xF7qrgledUuR-29" source="IpKQC5A5xF7qrgledUuR-51" target="IpKQC5A5xF7qrgledUuR-52">
          <mxGeometry relative="1" as="geometry" />
        </mxCell>
        <mxCell id="IpKQC5A5xF7qrgledUuR-51" value="Free FontData Structure" style="whiteSpace=wrap;html=1;rounded=1;" vertex="1" parent="IpKQC5A5xF7qrgledUuR-29">
          <mxGeometry x="44.45" y="365" width="143.55" height="27" as="geometry" />
        </mxCell>
        <mxCell id="IpKQC5A5xF7qrgledUuR-52" value="EOF" style="whiteSpace=wrap;html=1;rounded=1;" vertex="1" parent="IpKQC5A5xF7qrgledUuR-29">
          <mxGeometry x="268" y="365" width="39" height="27" as="geometry" />
        </mxCell>
        <mxCell id="IpKQC5A5xF7qrgledUuR-53" value="free(font);" style="text;html=1;align=center;verticalAlign=middle;resizable=0;points=[];autosize=1;strokeColor=none;fillColor=none;" vertex="1" parent="IpKQC5A5xF7qrgledUuR-29">
          <mxGeometry x="81.22999999999996" y="389" width="70" height="26" as="geometry" />
        </mxCell>
      </root>
    </mxGraphModel>
  </diagram>
</mxfile>
